PathFileType	4	(X/Y/Z)	/Users/niels/Desktop/University/Third Semester/Perception and Action/Exam/Gymnastics Motion Tracking/Code for Gym Tracking/Analyzed Data/Webcam_Backflip/id12_1_baseline_Sports2D/id12_1_baseline_Sports2D_px_person00.trc
DataRate	CameraRate	NumFrames	NumMarkers	Units	OrigDataRate	OrigDataStartFrame	OrigNumFrames
29.705882352941178	29.705882352941178	9	22	m	29.705882352941178	89	102
Frame#	Time	Hip			RHip			RKnee			RAnkle			RBigToe			RSmallToe			RHeel			LHip			LKnee			LAnkle			LBigToe			LSmallToe			LHeel			Neck			Head			Nose			RShoulder			RElbow			RWrist			LShoulder			LElbow			LWrist		
		X1	Y1	Z1	X2	Y2	Z2	X3	Y3	Z3	X4	Y4	Z4	X5	Y5	Z5	X6	Y6	Z6	X7	Y7	Z7	X8	Y8	Z8	X9	Y9	Z9	X10	Y10	Z10	X11	Y11	Z11	X12	Y12	Z12	X13	Y13	Z13	X14	Y14	Z14	X15	Y15	Z15	X16	Y16	Z16	X17	Y17	Z17	X18	Y18	Z18	X19	Y19	Z19	X20	Y20	Z20	X21	Y21	Z21	X22	Y22	Z22
89	2.996039603960396	1.148558722862059	-0.520835402770359	0.0	1.2055616325820748	-0.5072037205988358	0.0	1.3514846790566246	-0.7031599816960837	0.0	1.453730208145199	-0.911457831570987	0.0	1.4950932174361304	-0.9439009384106011	0.0	1.5088160201535172	-0.9497790715328377	0.0	1.4624046707086764	-0.9437116392008982	0.0	1.112420500202474	-0.5462104575936214	0.0	1.1294125388536027	-0.761973690534597	0.0	1.1307770655700662	-0.978613890294796	0.0	1.132483953692883	-0.9812230330840158	0.0	1.104300974405415	-0.989096256843917	0.0	1.1288706793364307	-1.0042741419646104	0.0	1.0651534410887207	-0.271909346171716	0.0	1.0885647224253117	-0.15023464902986589	0.0	1.115692921642457	-0.22160909908515333	0.0	1.1386360979166774	-0.2778511162462093	0.0	1.2341629675146966	-0.3639445160129316	0.0	1.308003876026923	-0.4037865172405821	0.0	0.9796965319257026	-0.3387612114191631	0.0	0.9792387032297648	-0.4821267493525181	0.0	1.0623742566419132	-0.4891222085948338	0.0
90	3.0297029702970297	1.1539515728124554	-0.5246321203257329	0.0	1.212233170966451	-0.5119992622080015	0.0	1.3493317589844298	-0.7205255962438291	0.0	1.4462346354543658	-0.9330591237770506	0.0	1.483461540869074	-0.9698361348196102	0.0	1.497226698543205	-0.9728295944007237	0.0	1.452175998381364	-0.965193111341591	0.0	1.1164151896294845	-0.5475131116099565	0.0	1.1314752633890037	-0.7662924271468828	0.0	1.130623734408439	-0.979834289819724	0.0	1.1334606309703434	-0.9808513955466507	0.0	1.104599033130783	-0.9885082646640169	0.0	1.127742279189484	-1.0053691312441368	0.0	1.0794550929123201	-0.2671630753170552	0.0	1.1019926759237186	-0.14508199563561086	0.0	1.1279343651696367	-0.2164740072123406	0.0	1.1547388272249348	-0.27856138670448544	0.0	1.2471772946458182	-0.3664229290582478	0.0	1.3278974150076832	-0.40490243867700876	0.0	0.990025785770146	-0.3323070477339587	0.0	0.9821973929935388	-0.4740818080092105	0.0	1.0637299814666583	-0.48203399955511345	0.0
91	3.0633663366336634	1.160105976137936	-0.5288974862355355	0.0	1.2195168228875146	-0.5172612179202501	0.0	1.3466066509413024	-0.7345788318396586	0.0	1.4378861723148215	-0.9490247669725914	0.0	1.4720507092175454	-0.9871486887095632	0.0	1.4862652548934912	-0.9883961026734037	0.0	1.441659956310344	-0.9805187073451893	0.0	1.1210082022461811	-0.5488382867305938	0.0	1.1336354859616025	-0.770858242675283	0.0	1.130586591041365	-0.9807661646234347	0.0	1.1344214811138318	-0.9801412647418266	0.0	1.1049492424127014	-0.9875026935829329	0.0	1.1267291154020678	-1.006271221893828	0.0	1.0944873038604657	-0.2631796064999456	0.0	1.1160752401921388	-0.1409953436498262	0.0	1.1414127385739132	-0.21201745933555374	0.0	1.170873582803449	-0.2798350201970857	0.0	1.2613627098215636	-0.37042864771014916	0.0	1.3482949765547094	-0.4077706038146649	0.0	1.001896301964281	-0.3259743059154501	0.0	0.9865125360856587	-0.466324687956396	0.0	1.0668887811121905	-0.47654750461579637	0.0
92	3.097029702970297	1.1672839394843655	-0.5333801076937968	0.0	1.227595972784175	-0.5229448695652631	0.0	1.3434996161840886	-0.7456981491471772	0.0	1.4286586554330896	-0.9607360502624431	0.0	1.4609436868364398	-0.9984388665304789	0.0	1.4760347943319807	-0.999002758132243	0.0	1.4306883316201227	-0.9913991507097574	0.0	1.126345917136526	-0.550154004235006	0.0	1.1359696169767926	-0.7748994237214912	0.0	1.1305011729887238	-0.9813359636932096	0.0	1.135472005315626	-0.979218716415162	0.0	1.1051723829032827	-0.9862635976279817	0.0	1.1258325428425764	-1.0068931083230162	0.0	1.1099350471496063	-0.26002432096561756	0.0	1.13058042754351	-0.13809687957478342	0.0	1.156085798726915	-0.20839499391571506	0.0	1.1873409649418938	-0.28146108272487985	0.0	1.2768253237663805	-0.37579310621069567	0.0	1.3684335154292244	-0.4130495482449872	0.0	1.0151331685129206	-0.32009505663888743	0.0	0.9922991325603642	-0.45952522454800127	0.0	1.0721895337363705	-0.47365027090166206	0.0
93	3.130693069306931	1.1756424213755037	-0.537960121016673	0.0	1.2366669748411945	-0.5291810255051064	0.0	1.3404077439688276	-0.7545926028998486	0.0	1.4188586031723525	-0.9698019773672035	0.0	1.4506607785082493	-1.005607219507881	0.0	1.4667593285583367	-1.0064694428867924	0.0	1.4193679030712254	-0.9998448243428537	0.0	1.1325776902890554	-0.551655401037469	0.0	1.1386306108432407	-0.7778564242515363	0.0	1.1302596749886713	-0.981524056024759	0.0	1.1365172699428971	-0.978357576369884	0.0	1.1051662754682279	-0.9850976169377574	0.0	1.125031717093229	-1.0073005891035978	0.0	1.1256258898278892	-0.2576196477596026	0.0	1.1452789427790282	-0.13637217697081	0.0	1.171525989783768	-0.20574355172068517	0.0	1.2044771713029894	-0.2834095178594645	0.0	1.293276664316284	-0.38217507420590774	0.0	1.387934260657413	-0.4209703828038759	0.0	1.029424541074311	-0.31501134847922735	0.0	0.9996859734109687	-0.45414455354095973	0.0	1.0796569439860482	-0.47366441382477686	0.0
94	3.1643564356435645	1.1851331288524332	-0.5425272926148141	0.0	1.24668740639127	-0.5359284266728439	0.0	1.3377112927844486	-0.7619713700679468	0.0	1.4090270731011538	-0.9774306875527315	0.0	1.4422307333380606	-1.0100503309124236	0.0	1.4586997714008414	-1.011972025668346	0.0	1.408072188694442	-1.007353108113541	0.0	1.1398314413575068	-0.5535246271026771	0.0	1.1417655178838864	-0.7796149262537638	0.0	1.1299064414315552	-0.9813672796153345	0.0	1.1372349031062732	-0.9778092728747604	0.0	1.1049826266742524	-0.9843260019270363	0.0	1.1243633198601943	-1.0077103819997666	0.0	1.1415041836628814	-0.25582119626741473	0.0	1.1599977564019606	-0.13567012899842928	0.0	1.1871184527918552	-0.20408073429374451	0.0	1.2224854984397344	-0.2857125891005997	0.0	1.3102715561475107	-0.3891130951927952	0.0	1.4065653155656268	-0.4312424626885936	0.0	1.0444481004784354	-0.31098218455284815	0.0	1.0087708533934063	-0.4503268857140918	0.0	1.0888974814905021	-0.47603210254305767	0.0
95	3.198019801980198	1.195490185021972	-0.5469070769977148	0.0	1.2573238770650348	-0.5427584310310496	0.0	1.3357535958109583	-0.7683721165889471	0.0	1.3999680190221102	-0.9842928037884334	0.0	1.4368440506726532	-1.0130792403522646	0.0	1.4523285947692812	-1.0164304287551977	0.0	1.3975852886716729	-1.0146073573317218	0.0	1.1481132235882918	-0.5557901292970603	0.0	1.1454235447409395	-0.7804748561596389	0.0	1.129596010137618	-0.9809415441725846	0.0	1.1372341918052469	-0.9776814800238095	0.0	1.1047802634978587	-0.9840983330076534	0.0	1.1238502476746914	-1.0083572032138752	0.0	1.1574862572529472	-0.25453389494227574	0.0	1.1745919578932207	-0.13572225344712072	0.0	1.2023417200534932	-0.20328071712068493	0.0	1.2412202951770277	-0.2883404679068677	0.0	1.3273443960281623	-0.3960502784859084	0.0	1.4240008423297086	-0.4432587725984839	0.0	1.0598866711938781	-0.30818921996617	0.0	1.0195686900089442	-0.4479948704477052	0.0	1.0993124036213506	-0.47956567751538126	0.0
96	3.231683168316832	1.2063168544550016	-0.5508861948725938	0.0	1.2681399192870753	-0.5490228641952627	0.0	1.334830436538395	-0.7740307335143661	0.0	1.3926235878713402	-0.9906673938931265	0.0	1.4349935936060145	-1.0156741226858148	0.0	1.4481686075762943	-1.0204315783237348	0.0	1.3889687094983048	-1.0216274699511434	0.0	1.1572541313727271	-0.5583115455216361	0.0	1.1495467784014306	-0.780889164457362	0.0	1.1294958144657992	-0.9803872149926313	0.0	1.1363613678227669	-0.9779037150964054	0.0	1.104793186261901	-0.9842795848693047	0.0	1.1234665067591727	-1.0093357788059896	0.0	1.1733768234183042	-0.2537407734740996	0.0	1.188921123347289	-0.1362038498556972	0.0	1.217043221946928	-0.20312332261698524	0.0	1.2601617890594403	-0.2911398879694653	0.0	1.3439927270931566	-0.402441523435574	0.0	1.439753557659728	-0.4562225767378787	0.0	1.0753862944510268	-0.3066836494094949	0.0	1.0319296593191156	-0.44695853315101736	0.0	1.1104717889332782	-0.4831751947413804	0.0
97	3.2653465346534656	1.2172323033280235	-0.5542667170314654	0.0	1.2788076240883628	-0.5541726076847437	0.0	1.3350863646218065	-0.7789173413732696	0.0	1.387614172181935	-0.9964732049155905	0.0	1.435994011849538	-1.0181936836677128	0.0	1.4462701387711128	-1.0240660499448646	0.0	1.382998850981272	-1.027944741468009	0.0	1.1669832705192331	-0.5607897298576412	0.0	1.1540645115397155	-0.7811694368802719	0.0	1.1297187486074727	-0.9798937035589371	0.0	1.1349288527725052	-0.9782742034489568	0.0	1.1052719728522382	-0.9845492837146048	0.0	1.123217637005157	-1.0105394706687976	0.0	1.1889360779282694	-0.2533834352438881	0.0	1.2028729272863643	-0.13679884711414803	0.0	1.2315167424553273	-0.20332047736180212	0.0	1.2786152959259758	-0.2938146390343927	0.0	1.3596567107210678	-0.4079059384291613	0.0	1.4533679894906262	-0.4691882167366269	0.0	1.090551368998841	-0.30629034870048855	0.0	1.0455290320139616	-0.44689318792214355	0.0	1.1221948971153837	-0.4863290763501091	0.0
